# xmcd
#
# Track frame offsets: 
#        150
#        16642
#        39315
#        61440
#        78045
#        105115
#        118975
#        140252
#        161157
#        178907
#        200860
#
# Disc length: 2815 seconds
#
# Revision: 4
# Processed by: cddbd v1.5.2PL0 Copyright (c) Steve Scherf et al.
# Submitted via: ExactAudioCopy v0.95a4
#
DISCID=8b0afd0b
DTITLE=Debbie Davies - Loose Tonight
DYEAR=1994
DGENRE=Blues
TTITLE0=I Don't Want No Man
TTITLE1=Wrong Man For Me
TTITLE2=Where The Blues Come To Die
TTITLE3=Give It Up
TTITLE4=Can't Go On This Way
TTITLE5=You Were Wrong
TTITLE6=This Man Is Killin' Me
TTITLE7=I Get The Blues So Easy
TTITLE8=I Like The Life
TTITLE9=A Mother's Blues
TTITLE10=You Don't Know What You're Doing
EXTD=Year: 1994\n\n\n\n\n\n                                          
EXTD=        http://debbiedavis.com
EXTT0=
EXTT1=
EXTT2=
EXTT3=
EXTT4=
EXTT5=
EXTT6=
EXTT7=
EXTT8=
EXTT9=
EXTT10=
PLAYORDER=
